<svg xmlns="http://www.w3.org/2000/svg" xmlns:xlink="http://www.w3.org/1999/xlink" width="24" height="24" viewBox="0 0 24 24"><defs><style>.a{fill:none;stroke:#0988ce;}.b{clip-path:url(#a);}.c{stroke:#fff;}</style><clipPath id="a"><rect class="a" width="24" height="24" transform="translate(110 278)"/></clipPath></defs><g class="b" transform="translate(-110 -278)"><g transform="translate(110 278)"><path class="c" d="M16.5,10h-9a1,1,0,1,0,0,2h9a1,1,0,1,0,0-2Z"/><path class="c" d="M16.5,15h-9a1,1,0,1,0,0,2h9a1,1,0,1,0,0-2Z"/><path class="c" d="M18.5,3H17.449A3.494,3.494,0,0,0,14,0H10A3.494,3.494,0,0,0,6.551,3H5.5a3,3,0,0,0-3,3V21a3,3,0,0,0,3,3h13a3,3,0,0,0,3-3V6A3,3,0,0,0,18.5,3ZM10,2h4a1.5,1.5,0,1,1,0,3H10a1.5,1.5,0,1,1,0-3Zm9.5,19a1,1,0,0,1-1,1H5.5a1,1,0,0,1-1-1V6a1,1,0,0,1,1-1H6.851A3.5,3.5,0,0,0,10,7h4a3.5,3.5,0,0,0,3.149-2H18.5a1,1,0,0,1,1,1V21Z"/></g></g></svg>