<svg xmlns="http://www.w3.org/2000/svg" xmlns:xlink="http://www.w3.org/1999/xlink" width="24" height="24" viewBox="0 0 24 24"><defs><style>.a{fill:#fff;stroke:#707070;}.b{clip-path:url(#a);}.c{fill:none;stroke:#000;stroke-linecap:round;stroke-linejoin:round;}</style><clipPath id="a"><rect class="a" width="24" height="24" transform="translate(-19838 4038)"/></clipPath></defs><g class="b" transform="translate(19838 -4038)"><path class="c" d="M13.685,10.034a3.339,3.339,0,1,0,2.995,2.995A3.339,3.339,0,0,0,13.685,10.034Zm8.04,3.323a8.053,8.053,0,0,1-.08,1.085L24,16.291a.564.564,0,0,1,.128.717L21.9,20.87a.564.564,0,0,1-.686.239l-2.343-.943a.841.841,0,0,0-.791.091,8.581,8.581,0,0,1-1.124.654.832.832,0,0,0-.46.633l-.351,2.5a.578.578,0,0,1-.557.478H11.125a.58.58,0,0,1-.558-.463l-.351-2.495a.838.838,0,0,0-.47-.638,8.1,8.1,0,0,1-1.12-.656.835.835,0,0,0-.788-.089L5.5,21.124a.564.564,0,0,1-.686-.239L2.58,17.024a.563.563,0,0,1,.128-.717L4.7,14.742a.837.837,0,0,0,.313-.735c-.019-.218-.03-.435-.03-.652s.011-.431.03-.644a.835.835,0,0,0-.317-.727L2.705,10.418A.564.564,0,0,1,2.582,9.7L4.813,5.843A.564.564,0,0,1,5.5,5.6l2.343.943a.841.841,0,0,0,.791-.091A8.582,8.582,0,0,1,9.757,5.8a.832.832,0,0,0,.46-.633l.351-2.5a.578.578,0,0,1,.557-.478h4.463a.58.58,0,0,1,.558.463L16.5,5.149a.838.838,0,0,0,.47.638,8.1,8.1,0,0,1,1.12.656.835.835,0,0,0,.788.089l2.342-.943a.564.564,0,0,1,.686.239l2.231,3.861a.563.563,0,0,1-.128.717l-1.994,1.565a.837.837,0,0,0-.316.735C21.713,12.922,21.725,13.139,21.725,13.357Z" transform="translate(-19839.357 4036.644)"/></g></svg>