<svg xmlns="http://www.w3.org/2000/svg" xmlns:xlink="http://www.w3.org/1999/xlink" width="24" height="24" viewBox="0 0 24 24"><defs><style>.a{fill:#fff;stroke-width:0.5px;}.a,.c{stroke:#fff;}.b{clip-path:url(#a);}.c{stroke-width:0.3px;}</style><clipPath id="a"><rect class="a" width="24" height="24"/></clipPath></defs><g class="b"><path class="c" d="M19.493,6.263H4.515A1.047,1.047,0,0,0,3.471,7.307L3.314,20.615a1.045,1.045,0,0,0,.313.757,1.03,1.03,0,0,0,.731.313H19.6a.948.948,0,0,0,.731-.313,1.03,1.03,0,0,0,.313-.731l-.1-13.309A1.053,1.053,0,0,0,19.493,6.263ZM12,19.572H5.4l.13-11.221H18.45l.078,11.221Zm3.34-8.351A1.047,1.047,0,0,1,14.3,12.265H9.708a1.044,1.044,0,1,1,0-2.088h4.567A1.053,1.053,0,0,1,15.344,11.221Zm7.829-4.2a.649.649,0,0,1-.209.026,1.013,1.013,0,0,1-1.018-.835l-.339-1.774H2.4L2.062,6.211A1.049,1.049,0,1,1,0,5.819L.5,3.21A1.108,1.108,0,0,1,1.54,2.349h20.9a1.038,1.038,0,0,1,1.018.835l.5,2.61A1.01,1.01,0,0,1,23.173,7.02Z" transform="translate(-0.328 -0.018)"/></g></svg>