<svg xmlns="http://www.w3.org/2000/svg" xmlns:xlink="http://www.w3.org/1999/xlink" width="50" height="50" viewBox="0 0 50 50"><defs><style>.a{fill:#f2f2f2;}.b{fill:#0988ce;}.c{filter:url(#a);}</style><filter id="a" x="0" y="0" width="50" height="50" filterUnits="userSpaceOnUse"><feOffset input="SourceAlpha"/><feGaussianBlur stdDeviation="1.5" result="b"/><feFlood flood-opacity="0.161"/><feComposite operator="in" in2="b"/><feComposite in="SourceGraphic"/></filter></defs><g transform="translate(-1792.5 -191.5)"><g class="c" transform="matrix(1, 0, 0, 1, 1792.5, 191.5)"><circle class="a" cx="20.5" cy="20.5" r="20.5" transform="translate(4.5 4.5)"/></g><path class="b" d="M15.777,42.554a1.854,1.854,0,0,1-1.269-.533A1.768,1.768,0,0,1,14,40.777a2,2,0,0,1,.508-1.269A1.784,1.784,0,0,1,15.777,39a1.885,1.885,0,0,1,1.244.508,1.79,1.79,0,0,1-1.244,3.046Zm7.59-.533a1.794,1.794,0,0,0,.533-1.244,1.9,1.9,0,0,0-.533-1.269A1.768,1.768,0,0,0,22.123,39a1.95,1.95,0,0,0-1.269.508,1.784,1.784,0,0,0-.508,1.269,1.885,1.885,0,0,0,.508,1.244,1.747,1.747,0,0,0,2.513,0Zm6.346,0a1.794,1.794,0,0,0,.533-1.244,1.9,1.9,0,0,0-.533-1.269A1.768,1.768,0,0,0,28.469,39a1.95,1.95,0,0,0-1.269.508,1.784,1.784,0,0,0-.508,1.269,1.885,1.885,0,0,0,.508,1.244,1.747,1.747,0,0,0,2.513,0Z" transform="translate(1795 176)"/></g></svg>