<svg xmlns="http://www.w3.org/2000/svg" xmlns:xlink="http://www.w3.org/1999/xlink" width="24" height="24" viewBox="0 0 24 24"><defs><style>.a{fill:#fff;stroke:#707070;}.b{clip-path:url(#a);}.c,.d,.e{fill:none;stroke:#000;}.c,.e{stroke-linecap:round;}.c{stroke-linejoin:round;}.d,.e{stroke-miterlimit:10;}</style><clipPath id="a"><rect class="a" width="24" height="24" transform="translate(-19929 4038)"/></clipPath></defs><g class="b" transform="translate(19929 -4038)"><g transform="translate(-19929.795 4037.205)"><path class="c" d="M20.093,8.4a3.657,3.657,0,0,1-3.3,3.6,3.655,3.655,0,0,1-3.3-3.6,3.21,3.21,0,0,1,3.3-3.6A3.229,3.229,0,0,1,20.093,8.4Z"/><path class="d" d="M16.794,15.195c-3.257,0-6.39,1.618-7.174,4.769a.635.635,0,0,0,.586.829H23.383a.636.636,0,0,0,.586-.829C23.184,16.762,20.052,15.195,16.794,15.195Z"/><path class="c" d="M10,9.294a2.961,2.961,0,0,1-2.649,2.9A2.959,2.959,0,0,1,4.7,9.294,2.592,2.592,0,0,1,7.347,6.4,2.607,2.607,0,0,1,10,9.294Z"/><path class="e" d="M10.3,15.295a7,7,0,0,0-2.949-.572c-2.6,0-5.1,1.292-5.73,3.809a.508.508,0,0,0,.468.662H7.7"/></g></g></svg>