<svg xmlns="http://www.w3.org/2000/svg" xmlns:xlink="http://www.w3.org/1999/xlink" width="24" height="24" viewBox="0 0 24 24"><defs><style>.a{fill:#fff;stroke:#707070;}.b{clip-path:url(#a);}.c{stroke:#fff;stroke-width:0.7px;}</style><clipPath id="a"><rect class="a" width="24" height="24" transform="translate(-19826 4365)"/></clipPath></defs><g class="b" transform="translate(19826 -4365)"><g transform="translate(-19826 4365)"><g transform="translate(-1.648)"><path class="c" d="M23.063,22.125h-.594L20.6,18.847a.938.938,0,0,0-.814-.472H11.813a.938.938,0,0,0-.814.472L9.126,22.125H8.531a.938.938,0,0,0,0,1.875H23.063a.938.938,0,0,0,0-1.875Zm-11.777,0,1.071-1.875h6.881l1.071,1.875Z"/><path class="c" d="M11.96,11.016H10.875a.938.938,0,0,0,0,1.875h9.844a.938.938,0,0,0,0-1.875H19.561c.036-.139.09-.714.122-.853a.938.938,0,0,0-1.826-.424c-.065.279-.159,1-.24,1.277H13.9a16.467,16.467,0,0,1-.64-4.495.95.95,0,0,0,.005-.1c0-.028,0-.056,0-.083a18.258,18.258,0,0,1,.612-4.464h3.7a26.984,26.984,0,0,1,.455,5.539.937.937,0,0,0,.937.918h.02a.937.937,0,0,0,.917-.957,29.832,29.832,0,0,0-.389-5.5h1.208a.938.938,0,1,0,0-1.875H10.875a.938.938,0,0,0,0,1.875h1.068a20.337,20.337,0,0,0-.522,3.609l-6.835.133a.938.938,0,0,0,0,1.875l6.83-.133A18.434,18.434,0,0,0,11.96,11.016Z"/></g></g></g></svg>