<svg xmlns="http://www.w3.org/2000/svg" width="62.365" height="62.365" viewBox="0 0 62.365 62.365"><defs><style>.a{fill:#0988ce;}</style></defs><path class="a" d="M62.928,31.745A31.183,31.183,0,1,1,31.745.563,31.183,31.183,0,0,1,62.928,31.745ZM28.138,48.256,51.274,25.121a2.012,2.012,0,0,0,0-2.845L48.429,19.43a2.012,2.012,0,0,0-2.845,0L26.716,38.3l-8.809-8.809a2.012,2.012,0,0,0-2.845,0l-2.845,2.845a2.012,2.012,0,0,0,0,2.845L25.293,48.256a2.012,2.012,0,0,0,2.845,0Z" transform="translate(-0.563 -0.563)"/></svg>