<svg xmlns="http://www.w3.org/2000/svg" xmlns:xlink="http://www.w3.org/1999/xlink" width="43.706" height="43.706" viewBox="0 0 43.706 43.706"><defs><style>.a,.b{fill:none;}.a{clip-rule:evenodd;}.c{fill:#717171;}.d{clip-path:url(#a);}.e{clip-path:url(#b);}.f{fill:rgba(186,186,186,0.5);}.g{clip-path:url(#c);}.h{clip-path:url(#d);}</style><clipPath id="a"><path class="a" d="M1353.853-901a21.853,21.853,0,0,1,21.853,21.853,21.853,21.853,0,0,1-21.853,21.853A21.853,21.853,0,0,1,1332-879.147,21.853,21.853,0,0,1,1353.853-901Z" transform="translate(-1332 901)"/></clipPath><clipPath id="b"><path class="b" d="M0,141H1656.23V-939H0Z" transform="translate(0 939)"/></clipPath><clipPath id="c"><path class="c" d="M1345.341-873.158h13.3v1.9h-13.3Zm6.651-1.9a7.6,7.6,0,0,1-7.6-7.6,7.6,7.6,0,0,1,7.6-7.6,7.6,7.6,0,0,1,7.6,7.6A7.6,7.6,0,0,1,1351.992-875.059Zm0-1.9a5.7,5.7,0,0,0,5.7-5.7,5.7,5.7,0,0,0-5.7-5.7,5.7,5.7,0,0,0-5.7,5.7A5.7,5.7,0,0,0,1351.992-876.959Z" transform="translate(-1344.391 890.261)"/></clipPath><clipPath id="d"><path class="c" d="M0,141H1656.23V-939H0Z" transform="translate(0 939)"/></clipPath></defs><g transform="translate(-1803.012 -35.707)"><g class="d" transform="translate(1803.012 35.707)"><g class="e" transform="translate(-1532.013 -43.706)"><path class="f" d="M1327-906h55.208v55.208H1327Z" transform="translate(199.262 943.955)"/></g></g><g class="g" transform="translate(1817.266 48.059)"><g class="h" transform="translate(-1546.264 -56.058)"><path class="c" d="M1339.391-895.261h26.7v30.5h-26.7Z" transform="translate(201.123 945.568)"/></g></g></g></svg>