<svg xmlns="http://www.w3.org/2000/svg" width="21.578" height="23.286" viewBox="0 0 21.578 23.286"><defs><style>.a{fill:#e5f3fa;}.b,.c{fill:none;stroke:#0988ce;}.b{stroke-linecap:round;stroke-linejoin:round;}.c{stroke-miterlimit:10;}</style></defs><g transform="translate(0.502 0.5)"><path class="a" d="M5.861-2.5A9.9,9.9,0,0,1,16.271,6L-4.156,5.649S-3.5-2.382,5.861-2.5Z" transform="translate(4.287 16.143)"/><g transform="translate(19885.287 -4038.857)"><g transform="translate(-19888.715 4036.286)"><path class="b" d="M18.429,7.714c-.21,2.832-2.357,5.143-4.714,5.143S9.206,10.547,9,7.714a4.62,4.62,0,0,1,4.714-5.143A4.646,4.646,0,0,1,18.429,7.714Z"/><path class="c" d="M13.714,16.286c-4.661,0-9.391,2.571-10.266,7.425a.9.9,0,0,0,.838,1.146H23.143a.9.9,0,0,0,.838-1.146C23.105,18.857,18.375,16.286,13.714,16.286Z"/></g></g></g></svg>