<svg xmlns="http://www.w3.org/2000/svg" xmlns:xlink="http://www.w3.org/1999/xlink" width="24" height="24" viewBox="0 0 24 24"><defs><style>.a{fill:#fff;}.a,.c{stroke:#fff;stroke-width:0.5px;}.b{clip-path:url(#a);}</style><clipPath id="a"><rect class="a" width="24" height="24"/></clipPath></defs><g class="b"><path class="c" d="M24.4,11.482A10.135,10.135,0,1,0,7.154,19.626l6.319,6.331a1.192,1.192,0,0,0,1.693,0l6.3-6.331A10.087,10.087,0,0,0,24.4,11.482Zm-4.6,6.462-5.485,5.485L8.823,17.945a7.738,7.738,0,0,1-2.23-6.224,7.834,7.834,0,0,1,3.446-5.759,7.714,7.714,0,0,1,8.537,0A7.834,7.834,0,0,1,22.022,11.7a7.738,7.738,0,0,1-2.23,6.248ZM16.442,7.452a1.192,1.192,0,0,0-1.693,0l-4.269,4.269a1.192,1.192,0,0,0-.346.835V15.5a1.192,1.192,0,0,0,1.192,1.192h2.885a1.192,1.192,0,0,0,.847-.346l4.269-4.269a1.192,1.192,0,0,0,0-1.681Zm-2.719,6.856H12.531V13.116l3.076-3.076L16.8,11.232Z" transform="translate(-2.917 -2.311)"/></g></svg>