<svg xmlns="http://www.w3.org/2000/svg" xmlns:xlink="http://www.w3.org/1999/xlink" width="24" height="24" viewBox="0 0 24 24"><defs><style>.a{fill:#fff;stroke:#707070;}.b{clip-path:url(#a);}.c{stroke:#fff;stroke-width:0.5px;}</style><clipPath id="a"><rect class="a" width="24" height="24"/></clipPath></defs><g class="b"><path class="c" d="M26.295,13.915C23.872,8.289,19.313,4.8,14.395,4.8S4.918,8.289,2.5,13.915a1.2,1.2,0,0,0,0,.96c2.423,5.626,6.982,9.117,11.9,9.117s9.477-3.491,11.9-9.117A1.2,1.2,0,0,0,26.295,13.915Zm-11.9,7.677c-3.8,0-7.4-2.747-9.477-7.2,2.075-4.45,5.674-7.2,9.477-7.2s7.4,2.747,9.477,7.2C21.8,18.845,18.2,21.592,14.395,21.592Zm0-12a4.8,4.8,0,1,0,4.8,4.8A4.8,4.8,0,0,0,14.395,9.6Zm0,7.2a2.4,2.4,0,1,1,2.4-2.4A2.4,2.4,0,0,1,14.395,16.794Z" transform="translate(-2.395 -2.395)"/></g></svg>