<svg xmlns="http://www.w3.org/2000/svg" width="124.732" height="17.824" viewBox="0 0 124.732 17.824"><defs><style>.a{fill:#0988ce;}</style></defs><path class="a" d="M29.4,25.735a5.716,5.716,0,0,1-2.185-.433,5.38,5.38,0,0,1-1.874-1.284,6.4,6.4,0,0,1-1.309-2.09,7.65,7.65,0,0,1-.493-2.847v-.048a7.654,7.654,0,0,1,.493-2.847,6.5,6.5,0,0,1,1.3-2.09,5.3,5.3,0,0,1,1.862-1.285,5.787,5.787,0,0,1,2.209-.432,4.585,4.585,0,0,1,2.415.577,6.438,6.438,0,0,1,1.6,1.345V7.959h3.651V25.5H33.408v-1.85a5.782,5.782,0,0,1-1.621,1.5A4.466,4.466,0,0,1,29.4,25.735Zm.937-3.1a2.946,2.946,0,0,0,1.213-.252,2.908,2.908,0,0,0,.986-.721,3.581,3.581,0,0,0,.673-1.129,4.045,4.045,0,0,0,.252-1.453v-.048A4.048,4.048,0,0,0,33.2,17.58a3.588,3.588,0,0,0-.673-1.129,2.9,2.9,0,0,0-.986-.721,3.045,3.045,0,0,0-2.426,0,3.026,3.026,0,0,0-1,.721,3.5,3.5,0,0,0-.685,1.117,4.03,4.03,0,0,0-.252,1.466v.048a4.055,4.055,0,0,0,.252,1.453,3.456,3.456,0,0,0,.685,1.129,3.026,3.026,0,0,0,1,.721A2.943,2.943,0,0,0,30.333,22.637Z" transform="translate(-23.535 -7.959)"/><path class="a" d="M62.618,30.779a7.257,7.257,0,0,1-2.762-.518,6.71,6.71,0,0,1-2.2-1.418A6.6,6.6,0,0,1,56.2,26.73a6.452,6.452,0,0,1-.528-2.607v-.049a6.452,6.452,0,0,1,.528-2.606,6.645,6.645,0,0,1,1.466-2.126,6.952,6.952,0,0,1,2.21-1.441,7.2,7.2,0,0,1,2.787-.528,7.28,7.28,0,0,1,2.763.517,6.751,6.751,0,0,1,2.2,1.417A6.62,6.62,0,0,1,69.08,21.42a6.462,6.462,0,0,1,.528,2.607v.048a6.461,6.461,0,0,1-.528,2.607,6.639,6.639,0,0,1-1.465,2.125,6.929,6.929,0,0,1-2.21,1.442A7.184,7.184,0,0,1,62.618,30.779Zm.048-3.147a3.384,3.384,0,0,0,1.406-.276,3.109,3.109,0,0,0,1.046-.757,3.329,3.329,0,0,0,.66-1.117A4,4,0,0,0,66,24.125v-.049a3.815,3.815,0,0,0-.24-1.357,3.41,3.41,0,0,0-1.778-1.91,3.224,3.224,0,0,0-1.369-.288,3.4,3.4,0,0,0-1.405.276,3.109,3.109,0,0,0-1.045.757,3.344,3.344,0,0,0-.661,1.117,3.981,3.981,0,0,0-.228,1.357v.048a3.8,3.8,0,0,0,.241,1.358,3.442,3.442,0,0,0,1.765,1.91A3.183,3.183,0,0,0,62.666,27.632Z" transform="translate(-40.592 -12.955)"/><path class="a" d="M93.6,30.781a6.752,6.752,0,0,1-2.678-.529A6.469,6.469,0,0,1,87.4,26.709a6.66,6.66,0,0,1-.5-2.582v-.049a6.753,6.753,0,0,1,.5-2.594,6.674,6.674,0,0,1,1.393-2.138A6.491,6.491,0,0,1,90.92,17.9a6.873,6.873,0,0,1,2.726-.528,6.978,6.978,0,0,1,3.027.577,6.791,6.791,0,0,1,2.114,1.585l-2.234,2.4a5.96,5.96,0,0,0-1.285-1.033,3.231,3.231,0,0,0-1.645-.384,2.841,2.841,0,0,0-1.261.276,3.131,3.131,0,0,0-.986.757,3.459,3.459,0,0,0-.649,1.117A3.981,3.981,0,0,0,90.5,24.03v.048a4.156,4.156,0,0,0,.228,1.393,3.292,3.292,0,0,0,.661,1.129,3.118,3.118,0,0,0,1.033.757,3.175,3.175,0,0,0,1.345.276,3.285,3.285,0,0,0,1.6-.373,6.726,6.726,0,0,0,1.358-1l2.138,2.162a8.207,8.207,0,0,1-2.138,1.693A6.422,6.422,0,0,1,93.6,30.781Z" transform="translate(-57.16 -12.957)"/><path class="a" d="M118.129,27.261a5.95,5.95,0,0,1-1.525-.182,2.714,2.714,0,0,1-1.177-.635,3.045,3.045,0,0,1-.769-1.189,5.323,5.323,0,0,1-.276-1.862v-6.1h-1.537V14.169h1.537V10.878h3.651v3.291h3.027v3.123h-3.027v5.5q0,1.249,1.177,1.249a3.718,3.718,0,0,0,1.8-.457v2.93a5.5,5.5,0,0,1-2.882.745Z" transform="translate(-70.931 -9.508)"/><path class="a" d="M138.363,30.779a7.259,7.259,0,0,1-2.763-.518,6.725,6.725,0,0,1-2.2-1.418,6.6,6.6,0,0,1-1.453-2.113,6.451,6.451,0,0,1-.528-2.607v-.049a6.452,6.452,0,0,1,.528-2.606,6.645,6.645,0,0,1,1.466-2.126,6.946,6.946,0,0,1,2.21-1.441,7.2,7.2,0,0,1,2.787-.528,7.284,7.284,0,0,1,2.763.517,6.761,6.761,0,0,1,2.2,1.417,6.622,6.622,0,0,1,1.454,2.114,6.462,6.462,0,0,1,.528,2.607v.048a6.461,6.461,0,0,1-.528,2.607,6.648,6.648,0,0,1-1.466,2.125,6.919,6.919,0,0,1-2.21,1.442A7.167,7.167,0,0,1,138.363,30.779Zm.048-3.147a3.383,3.383,0,0,0,1.406-.276,3.109,3.109,0,0,0,1.046-.757,3.328,3.328,0,0,0,.66-1.117,3.982,3.982,0,0,0,.228-1.358v-.049a3.815,3.815,0,0,0-.24-1.357,3.411,3.411,0,0,0-1.777-1.91,3.225,3.225,0,0,0-1.369-.288,3.4,3.4,0,0,0-1.406.276,3.109,3.109,0,0,0-1.045.757,3.344,3.344,0,0,0-.661,1.117,3.99,3.99,0,0,0-.228,1.357v.048a3.808,3.808,0,0,0,.24,1.358,3.445,3.445,0,0,0,1.766,1.91A3.2,3.2,0,0,0,138.411,27.632Z" transform="translate(-80.789 -12.955)"/><path class="a" d="M163.974,17.612h3.651v2.594a5.346,5.346,0,0,1,1.514-2.114,3.686,3.686,0,0,1,2.594-.721v3.82h-.192a3.762,3.762,0,0,0-2.871,1.1,4.863,4.863,0,0,0-1.045,3.435v4.757h-3.651Z" transform="translate(-98.065 -12.951)"/><path class="a" d="M189.518,31.44a7.626,7.626,0,0,1-2.69-.5,8.29,8.29,0,0,1-2.33-1.3l.7-.937a8.433,8.433,0,0,0,2.114,1.19,6.371,6.371,0,0,0,2.281.42,3.466,3.466,0,0,0,2.1-.622,2,2,0,0,0,.852-1.7v-.048a1.57,1.57,0,0,0-.264-.911,2.456,2.456,0,0,0-.72-.671,4.742,4.742,0,0,0-1.033-.479q-.576-.191-1.224-.383-.745-.216-1.5-.456a6.078,6.078,0,0,1-1.358-.612,3.154,3.154,0,0,1-.972-.923,2.39,2.39,0,0,1-.372-1.367v-.049a3.022,3.022,0,0,1,.3-1.354,3.349,3.349,0,0,1,.829-1.067,3.76,3.76,0,0,1,1.273-.707,5.086,5.086,0,0,1,1.633-.252,7.521,7.521,0,0,1,2.271.368,7.677,7.677,0,0,1,2.078,1l-.624.985a8.14,8.14,0,0,0-1.813-.889,5.968,5.968,0,0,0-1.959-.336,3.128,3.128,0,0,0-2.028.612,1.88,1.88,0,0,0-.757,1.522v.048a1.385,1.385,0,0,0,.288.875,2.476,2.476,0,0,0,.755.635,5.991,5.991,0,0,0,1.093.467q.624.2,1.273.4.746.216,1.465.467a5.475,5.475,0,0,1,1.3.647,3.26,3.26,0,0,1,.926.947,2.517,2.517,0,0,1,.348,1.366v.048a3.251,3.251,0,0,1-1.225,2.6,4.159,4.159,0,0,1-1.345.719A5.312,5.312,0,0,1,189.518,31.44Z" transform="translate(-108.957 -13.663)"/><path class="a" d="M212.361,31.54a6.207,6.207,0,0,1-1.706-.24,4.94,4.94,0,0,1-1.514-.72,3.844,3.844,0,0,1-1.093-1.2,3.28,3.28,0,0,1-.421-1.682v-.048a3.573,3.573,0,0,1,.4-1.706,3.627,3.627,0,0,1,1.093-1.249,5.075,5.075,0,0,1,1.681-.769,8.441,8.441,0,0,1,2.186-.264,14.91,14.91,0,0,1,2.234.145,16.987,16.987,0,0,1,1.826.384v-.526a3.513,3.513,0,0,0-1.068-2.795,4.37,4.37,0,0,0-2.966-.932,7.29,7.29,0,0,0-2.066.276,10.1,10.1,0,0,0-1.777.709l-.433-1.034a12.5,12.5,0,0,1,2.042-.785,8.4,8.4,0,0,1,2.306-.295,5.235,5.235,0,0,1,3.868,1.346,4.679,4.679,0,0,1,1.248,3.459V31.25h-1.152V29.209a6.1,6.1,0,0,1-.756.852,5.142,5.142,0,0,1-1.022.744,5.948,5.948,0,0,1-2.907.735Zm.071-1.128a5.642,5.642,0,0,0,1.777-.276,4.9,4.9,0,0,0,1.477-.765,3.681,3.681,0,0,0,1.009-1.184,3.193,3.193,0,0,0,.373-1.531V25.268c-.514-.127-1.113-.251-1.8-.371a13.865,13.865,0,0,0-2.354-.179,4.943,4.943,0,0,0-2.991.777,2.453,2.453,0,0,0-1.045,2.069v.048a2.393,2.393,0,0,0,.287,1.184,2.727,2.727,0,0,0,.781.873,3.714,3.714,0,0,0,1.141.55A4.745,4.745,0,0,0,212.432,30.412Z" transform="translate(-121.232 -13.716)"/><path class="a" d="M236.394,18.895h1.177v2.282a5.723,5.723,0,0,1,1.682-1.826,4.65,4.65,0,0,1,2.738-.744,5.434,5.434,0,0,1,2.066.372,4.315,4.315,0,0,1,2.511,2.642,6.084,6.084,0,0,1,.323,2.03v7.5h-1.177V23.867a4.423,4.423,0,0,0-1.008-3.039,3.647,3.647,0,0,0-2.883-1.141,4.275,4.275,0,0,0-1.681.324,4.164,4.164,0,0,0-1.346.9,4.089,4.089,0,0,0-.9,1.381,4.674,4.674,0,0,0-.324,1.766v7.087h-1.177Z" transform="translate(-136.498 -13.609)"/><path class="a" d="M269.322,25.783a5.78,5.78,0,0,1-2.175-.433,5.856,5.856,0,0,1-1.909-1.249,6.221,6.221,0,0,1-1.358-2,6.665,6.665,0,0,1-.517-2.679v-.048a6.633,6.633,0,0,1,.517-2.678,6.326,6.326,0,0,1,1.358-2.018,5.961,5.961,0,0,1,1.909-1.273A5.734,5.734,0,0,1,271,13.2a5.34,5.34,0,0,1,1.38.649,6.26,6.26,0,0,1,1.1.937,8.885,8.885,0,0,1,.876,1.1V7.959h1.177V25.5h-1.177V22.756a11.135,11.135,0,0,1-.9,1.154,5.728,5.728,0,0,1-1.1.961,5.629,5.629,0,0,1-1.369.66A5.229,5.229,0,0,1,269.322,25.783Zm.107-1.128a4.719,4.719,0,0,0,1.866-.385,5.033,5.033,0,0,0,1.6-1.081,5.354,5.354,0,0,0,1.12-1.658,5.258,5.258,0,0,0,.421-2.138v-.048a5.367,5.367,0,0,0-.421-2.15,5.094,5.094,0,0,0-2.721-2.727,4.721,4.721,0,0,0-1.866-.384,4.923,4.923,0,0,0-1.89.36,4.457,4.457,0,0,0-1.529,1.033,4.835,4.835,0,0,0-1.024,1.645,6.1,6.1,0,0,0-.373,2.2v.048A5.944,5.944,0,0,0,265,21.555a4.974,4.974,0,0,0,1.047,1.67,4.614,4.614,0,0,0,1.54,1.057A4.688,4.688,0,0,0,269.429,24.655Z" transform="translate(-150.811 -7.959)"/></svg>