<svg xmlns="http://www.w3.org/2000/svg" width="180.246" height="46.645" viewBox="0 0 180.246 46.645"><defs><style>.a{fill:#fff;}</style></defs><g transform="translate(-23.173 -7.959)"><g transform="translate(23.416 7.959)"><path class="a" d="M31.923,33.4a8.18,8.18,0,0,1-3.127-.619,7.7,7.7,0,0,1-2.682-1.838A9.161,9.161,0,0,1,24.24,27.95a10.948,10.948,0,0,1-.705-4.074v-.069a10.953,10.953,0,0,1,.705-4.074A9.307,9.307,0,0,1,26.1,16.743a7.585,7.585,0,0,1,2.664-1.84,8.282,8.282,0,0,1,3.162-.619,6.562,6.562,0,0,1,3.455.825,9.213,9.213,0,0,1,2.286,1.925V7.959h5.225v25.1H37.664V30.408a8.275,8.275,0,0,1-2.32,2.149A6.391,6.391,0,0,1,31.923,33.4Zm1.341-4.435A4.216,4.216,0,0,0,35,28.6a4.162,4.162,0,0,0,1.41-1.032,5.125,5.125,0,0,0,.962-1.616,5.788,5.788,0,0,0,.361-2.08v-.069a5.794,5.794,0,0,0-.361-2.08,5.135,5.135,0,0,0-.962-1.616A4.155,4.155,0,0,0,35,19.08a4.357,4.357,0,0,0-3.472,0A4.33,4.33,0,0,0,30.1,20.111a5,5,0,0,0-.98,1.6,5.767,5.767,0,0,0-.361,2.1v.069a5.8,5.8,0,0,0,.361,2.08,4.945,4.945,0,0,0,.98,1.616A4.33,4.33,0,0,0,31.528,28.6,4.211,4.211,0,0,0,33.264,28.964Z" transform="translate(-23.535 -7.959)"/><path class="a" d="M65.611,36.558a10.385,10.385,0,0,1-3.953-.741,9.6,9.6,0,0,1-3.147-2.029,9.439,9.439,0,0,1-2.08-3.024,9.233,9.233,0,0,1-.756-3.731v-.07a9.233,9.233,0,0,1,.756-3.729,9.509,9.509,0,0,1,2.1-3.042,9.949,9.949,0,0,1,3.163-2.063,10.309,10.309,0,0,1,3.988-.756,10.418,10.418,0,0,1,3.954.739,9.662,9.662,0,0,1,3.146,2.028,9.474,9.474,0,0,1,2.08,3.025,9.247,9.247,0,0,1,.756,3.73v.069a9.246,9.246,0,0,1-.756,3.731,9.5,9.5,0,0,1-2.1,3.041A9.916,9.916,0,0,1,69.6,35.8,10.282,10.282,0,0,1,65.611,36.558Zm.069-4.5a4.843,4.843,0,0,0,2.011-.4,4.449,4.449,0,0,0,1.5-1.083,4.764,4.764,0,0,0,.945-1.6,5.731,5.731,0,0,0,.326-1.943v-.07a5.459,5.459,0,0,0-.344-1.942,4.88,4.88,0,0,0-2.544-2.733,4.613,4.613,0,0,0-1.959-.412,4.861,4.861,0,0,0-2.011.395,4.449,4.449,0,0,0-1.5,1.083,4.786,4.786,0,0,0-.946,1.6,5.7,5.7,0,0,0-.326,1.942v.069a5.435,5.435,0,0,0,.345,1.943A4.926,4.926,0,0,0,63.7,31.641,4.555,4.555,0,0,0,65.679,32.055Z" transform="translate(-34.089 -11.05)"/><path class="a" d="M96.487,36.559a9.662,9.662,0,0,1-3.833-.757,9.258,9.258,0,0,1-5.036-5.071,9.531,9.531,0,0,1-.722-3.7v-.07a9.664,9.664,0,0,1,.722-3.713,9.551,9.551,0,0,1,1.994-3.059,9.29,9.29,0,0,1,3.042-2.063,9.836,9.836,0,0,1,3.9-.756,9.987,9.987,0,0,1,4.331.825,9.718,9.718,0,0,1,3.025,2.269l-3.2,3.438a8.53,8.53,0,0,0-1.84-1.478,4.624,4.624,0,0,0-2.355-.55,4.065,4.065,0,0,0-1.805.395,4.481,4.481,0,0,0-1.41,1.083,4.95,4.95,0,0,0-.928,1.6,5.7,5.7,0,0,0-.326,1.942v.069a5.948,5.948,0,0,0,.326,1.994,4.711,4.711,0,0,0,.946,1.616A4.463,4.463,0,0,0,94.8,31.659a4.544,4.544,0,0,0,1.925.4,4.7,4.7,0,0,0,2.286-.533,9.625,9.625,0,0,0,1.943-1.427l3.06,3.093a11.745,11.745,0,0,1-3.06,2.423A9.19,9.19,0,0,1,96.487,36.559Z" transform="translate(-44.342 -11.051)"/><path class="a" d="M120.407,34.323a8.514,8.514,0,0,1-2.183-.26,3.884,3.884,0,0,1-1.684-.909,4.358,4.358,0,0,1-1.1-1.7,7.618,7.618,0,0,1-.395-2.664V20.056h-2.2V15.587h2.2V10.878h5.225v4.709H124.6v4.469h-4.332v7.873q0,1.787,1.685,1.788a5.32,5.32,0,0,0,2.578-.653v4.194a7.872,7.872,0,0,1-4.125,1.067Z" transform="translate(-52.863 -8.918)"/><path class="a" d="M141.357,36.558a10.388,10.388,0,0,1-3.954-.741,9.624,9.624,0,0,1-3.147-2.029,9.438,9.438,0,0,1-2.08-3.024,9.233,9.233,0,0,1-.756-3.731v-.07a9.233,9.233,0,0,1,.756-3.729,9.51,9.51,0,0,1,2.1-3.042,9.941,9.941,0,0,1,3.163-2.063,10.309,10.309,0,0,1,3.988-.756,10.424,10.424,0,0,1,3.954.739,9.676,9.676,0,0,1,3.146,2.028,9.476,9.476,0,0,1,2.081,3.025,9.248,9.248,0,0,1,.756,3.73v.069a9.246,9.246,0,0,1-.756,3.731,9.514,9.514,0,0,1-2.1,3.041,9.9,9.9,0,0,1-3.163,2.063A10.257,10.257,0,0,1,141.357,36.558Zm.069-4.5a4.841,4.841,0,0,0,2.011-.4,4.45,4.45,0,0,0,1.5-1.083,4.763,4.763,0,0,0,.944-1.6,5.7,5.7,0,0,0,.326-1.943v-.07a5.459,5.459,0,0,0-.344-1.942,4.881,4.881,0,0,0-2.543-2.733,4.616,4.616,0,0,0-1.959-.412,4.865,4.865,0,0,0-2.011.395,4.449,4.449,0,0,0-1.5,1.083,4.786,4.786,0,0,0-.946,1.6,5.71,5.71,0,0,0-.326,1.942v.069a5.448,5.448,0,0,0,.344,1.943,4.93,4.93,0,0,0,2.527,2.733A4.572,4.572,0,0,0,141.425,32.055Z" transform="translate(-58.963 -11.05)"/><path class="a" d="M163.974,17.718H169.2V21.43a7.651,7.651,0,0,1,2.166-3.025,5.275,5.275,0,0,1,3.713-1.032V22.84H174.8a5.383,5.383,0,0,0-4.108,1.581,6.96,6.96,0,0,0-1.5,4.916v6.808h-5.225Z" transform="translate(-69.653 -11.048)"/><path class="a" d="M191.682,36.928a10.913,10.913,0,0,1-3.849-.719,11.864,11.864,0,0,1-3.335-1.86l1-1.341a12.069,12.069,0,0,0,3.025,1.7,9.117,9.117,0,0,0,3.265.6,4.96,4.96,0,0,0,3.008-.891,2.856,2.856,0,0,0,1.22-2.436v-.069a2.247,2.247,0,0,0-.378-1.3,3.515,3.515,0,0,0-1.031-.96,6.786,6.786,0,0,0-1.479-.686q-.824-.273-1.752-.548-1.067-.309-2.148-.652a8.7,8.7,0,0,1-1.944-.875,4.513,4.513,0,0,1-1.392-1.321,3.421,3.421,0,0,1-.533-1.956v-.07a4.324,4.324,0,0,1,.431-1.938,4.792,4.792,0,0,1,1.187-1.527,5.381,5.381,0,0,1,1.822-1.011,7.279,7.279,0,0,1,2.337-.361,10.763,10.763,0,0,1,3.249.527,10.986,10.986,0,0,1,2.973,1.433l-.893,1.409a11.649,11.649,0,0,0-2.594-1.272,8.541,8.541,0,0,0-2.8-.481,4.476,4.476,0,0,0-2.9.875,2.691,2.691,0,0,0-1.083,2.178v.069a1.983,1.983,0,0,0,.412,1.253,3.544,3.544,0,0,0,1.081.909,8.574,8.574,0,0,0,1.565.668q.894.293,1.822.567,1.067.309,2.1.669a7.835,7.835,0,0,1,1.858.926,4.664,4.664,0,0,1,1.325,1.355,3.6,3.6,0,0,1,.5,1.955v.069a4.652,4.652,0,0,1-1.753,3.722,5.951,5.951,0,0,1-1.925,1.028A7.6,7.6,0,0,1,191.682,36.928Z" transform="translate(-76.392 -11.489)"/><path class="a" d="M214.4,37.029a8.882,8.882,0,0,1-2.441-.344,7.07,7.07,0,0,1-2.167-1.031,5.5,5.5,0,0,1-1.565-1.721,4.694,4.694,0,0,1-.6-2.406v-.069a5.114,5.114,0,0,1,.568-2.441,5.191,5.191,0,0,1,1.565-1.787,7.263,7.263,0,0,1,2.405-1.1,12.08,12.08,0,0,1,3.128-.378,21.336,21.336,0,0,1,3.2.207,24.311,24.311,0,0,1,2.613.549v-.752a5.028,5.028,0,0,0-1.529-4,6.254,6.254,0,0,0-4.245-1.333,10.433,10.433,0,0,0-2.956.395,14.46,14.46,0,0,0-2.543,1.014l-.619-1.48a17.884,17.884,0,0,1,2.923-1.124,12.025,12.025,0,0,1,3.3-.422,7.492,7.492,0,0,1,5.535,1.926,6.7,6.7,0,0,1,1.786,4.95V36.614h-1.649V33.693a8.732,8.732,0,0,1-1.082,1.22,7.36,7.36,0,0,1-1.462,1.065,8.513,8.513,0,0,1-4.161,1.052Zm.1-1.615a8.074,8.074,0,0,0,2.543-.395,7.016,7.016,0,0,0,2.114-1.1A5.268,5.268,0,0,0,220.6,32.23a4.569,4.569,0,0,0,.533-2.191V28.054c-.735-.182-1.593-.359-2.58-.531a19.842,19.842,0,0,0-3.369-.257,7.074,7.074,0,0,0-4.28,1.112,3.511,3.511,0,0,0-1.5,2.96v.069a3.425,3.425,0,0,0,.411,1.694,3.9,3.9,0,0,0,1.118,1.249,5.315,5.315,0,0,0,1.633.787A6.791,6.791,0,0,0,214.5,35.415Z" transform="translate(-83.988 -11.521)"/><path class="a" d="M236.394,19.019h1.684v3.265a8.191,8.191,0,0,1,2.407-2.613,6.655,6.655,0,0,1,3.918-1.065,7.777,7.777,0,0,1,2.956.533,6.175,6.175,0,0,1,3.593,3.781,8.706,8.706,0,0,1,.463,2.905V36.552h-1.684V26.135a6.33,6.33,0,0,0-1.443-4.349,5.219,5.219,0,0,0-4.126-1.633,6.118,6.118,0,0,0-2.406.464,5.959,5.959,0,0,0-1.926,1.29,5.851,5.851,0,0,0-1.289,1.976,6.688,6.688,0,0,0-.464,2.527V36.55h-1.684Z" transform="translate(-93.434 -11.455)"/><path class="a" d="M271.891,33.467a8.272,8.272,0,0,1-3.112-.619,8.381,8.381,0,0,1-2.731-1.788,8.9,8.9,0,0,1-1.944-2.869,9.539,9.539,0,0,1-.739-3.834v-.069a9.493,9.493,0,0,1,.739-3.833,9.053,9.053,0,0,1,1.944-2.887,8.531,8.531,0,0,1,2.731-1.822,8.206,8.206,0,0,1,5.519-.292,7.641,7.641,0,0,1,1.975.928,8.961,8.961,0,0,1,1.581,1.341,12.717,12.717,0,0,1,1.254,1.581V7.959h1.684v25.1h-1.684v-3.92a15.941,15.941,0,0,1-1.289,1.651,8.2,8.2,0,0,1-1.581,1.375,8.055,8.055,0,0,1-1.959.944A7.483,7.483,0,0,1,271.891,33.467Zm.153-1.615a6.753,6.753,0,0,0,2.671-.551,7.2,7.2,0,0,0,2.292-1.547,7.663,7.663,0,0,0,1.6-2.372,7.524,7.524,0,0,0,.6-3.06v-.069a7.681,7.681,0,0,0-.6-3.077,7.289,7.289,0,0,0-3.895-3.9,6.757,6.757,0,0,0-2.671-.55,7.045,7.045,0,0,0-2.7.516,6.379,6.379,0,0,0-2.189,1.478,6.919,6.919,0,0,0-1.465,2.355,8.733,8.733,0,0,0-.534,3.146v.069a8.506,8.506,0,0,0,.551,3.128,7.118,7.118,0,0,0,1.5,2.39,6.6,6.6,0,0,0,2.2,1.512A6.709,6.709,0,0,0,272.044,31.852Z" transform="translate(-102.291 -7.959)"/></g><g transform="translate(23.173 41.753)"><path class="a" d="M23.173,66.6v-.029a3.859,3.859,0,0,1,6.769-2.556l-.731.775a2.992,2.992,0,0,0-2.252-1.122,2.739,2.739,0,0,0-2.653,2.875v.028a2.774,2.774,0,0,0,2.725,2.889A3.056,3.056,0,0,0,29.3,68.351l.7.661A3.833,3.833,0,0,1,23.173,66.6Z" transform="translate(-23.173 -59.725)"/><path class="a" d="M34.411,66.582v-.029a3.661,3.661,0,0,1,3.556-3.866c2.194,0,3.456,1.753,3.456,3.924a2.894,2.894,0,0,1-.014.358H35.53a2.591,2.591,0,0,0,2.61,2.516,3.062,3.062,0,0,0,2.337-1.05l.688.618a3.825,3.825,0,0,1-3.055,1.394A3.686,3.686,0,0,1,34.411,66.582Zm5.893-.43a2.445,2.445,0,0,0-2.365-2.531,2.558,2.558,0,0,0-2.408,2.531Z" transform="translate(-26.863 -59.725)"/><path class="a" d="M47.356,62.859h1.1V64.8a3.176,3.176,0,0,1,3.026-2.07v1.193H51.4c-1.621,0-2.94,1.163-2.94,3.405v2.96h-1.1V62.859Z" transform="translate(-31.114 -59.738)"/><path class="a" d="M55.594,67.288V62.8H54.562v-.977h1.032V59.585h1.1v2.242h2.352V62.8H56.7v4.341a1.1,1.1,0,0,0,1.247,1.236,2.317,2.317,0,0,0,1.077-.259v.947a2.759,2.759,0,0,1-1.333.317A1.889,1.889,0,0,1,55.594,67.288Z" transform="translate(-33.481 -58.707)"/><path class="a" d="M63.733,58.688h1.261v1.22H63.733Zm.071,2.844h1.1v7.43H63.8Z" transform="translate(-36.492 -58.412)"/><path class="a" d="M68.907,62.375H67.889v-.964h1.018v-.647a2.629,2.629,0,0,1,.646-1.913,2.175,2.175,0,0,1,1.591-.574,3.34,3.34,0,0,1,1.219.187v.963a3.667,3.667,0,0,0-1.076-.187c-.86,0-1.291.518-1.291,1.581v.6h2.351v.948H70.011v6.451h-1.1v-6.45Zm4.875-3.821h1.263v1.22H73.782Zm.086,2.844h1.09v7.43h-1.09Z" transform="translate(-37.857 -58.277)"/><path class="a" d="M80.876,66.582v-.029a3.661,3.661,0,0,1,3.556-3.866c2.194,0,3.456,1.753,3.456,3.924a2.9,2.9,0,0,1-.014.358H81.994a2.591,2.591,0,0,0,2.61,2.516,3.065,3.065,0,0,0,2.337-1.05l.688.618a3.825,3.825,0,0,1-3.055,1.394A3.686,3.686,0,0,1,80.876,66.582Zm5.893-.43A2.444,2.444,0,0,0,84.4,63.621,2.558,2.558,0,0,0,82,66.152Z" transform="translate(-42.122 -59.725)"/><path class="a" d="M93.18,65.162v-.029a3.643,3.643,0,0,1,3.541-3.866,3.339,3.339,0,0,1,2.84,1.581V58.365h1.1v10.49h-1.1V67.361a3.334,3.334,0,0,1-2.84,1.653A3.62,3.62,0,0,1,93.18,65.162Zm6.425-.015V65.12a2.759,2.759,0,0,0-2.682-2.861,2.62,2.62,0,0,0-2.61,2.861v.028a2.682,2.682,0,0,0,2.61,2.875A2.772,2.772,0,0,0,99.6,65.148Z" transform="translate(-46.162 -58.306)"/><path class="a" d="M112.819,69.341l.559-.791a4.337,4.337,0,0,0,2.567.948c.889,0,1.534-.461,1.534-1.178v-.029c0-.748-.875-1.035-1.849-1.309-1.162-.33-2.453-.732-2.453-2.1v-.029A2.246,2.246,0,0,1,115.7,62.73a5.058,5.058,0,0,1,2.668.82l-.5.833a4.18,4.18,0,0,0-2.194-.719c-.874,0-1.435.461-1.435,1.077v.029c0,.7.918.977,1.907,1.278,1.147.346,2.38.792,2.38,2.128v.029c0,1.408-1.161,2.226-2.638,2.226A5.072,5.072,0,0,1,112.819,69.341Z" transform="translate(-52.611 -59.739)"/><path class="a" d="M123.119,68.147v-.029c0-1.566,1.29-2.4,3.169-2.4a7.818,7.818,0,0,1,2.28.316v-.259c0-1.337-.817-2.027-2.208-2.027a5.158,5.158,0,0,0-2.252.546l-.33-.907a6.124,6.124,0,0,1,2.7-.617,3.24,3.24,0,0,1,2.394.82,2.932,2.932,0,0,1,.76,2.169V70.3h-1.061v-1.12a3.246,3.246,0,0,1-2.682,1.279A2.5,2.5,0,0,1,123.119,68.147Zm5.463-.575v-.718a7.754,7.754,0,0,0-2.179-.316c-1.391,0-2.165.6-2.165,1.537V68.1c0,.935.86,1.48,1.864,1.48A2.241,2.241,0,0,0,128.582,67.572Z" transform="translate(-55.993 -59.753)"/><path class="a" d="M135.7,62.846h1.1V64.14a2.806,2.806,0,0,1,2.538-1.452,2.711,2.711,0,0,1,2.839,2.975v4.613h-1.1V65.936a1.979,1.979,0,0,0-2.052-2.242,2.185,2.185,0,0,0-2.222,2.329v4.254h-1.1V62.846Z" transform="translate(-60.125 -59.725)"/><path class="a" d="M147.833,65.162v-.029a3.643,3.643,0,0,1,3.541-3.866,3.337,3.337,0,0,1,2.84,1.581V58.365h1.105v10.49h-1.105V67.361a3.334,3.334,0,0,1-2.84,1.653A3.62,3.62,0,0,1,147.833,65.162Zm6.425-.015V65.12a2.759,2.759,0,0,0-2.682-2.861,2.62,2.62,0,0,0-2.61,2.861v.028a2.682,2.682,0,0,0,2.61,2.875A2.771,2.771,0,0,0,154.258,65.148Z" transform="translate(-64.109 -58.306)"/><path class="a" d="M168.392,62.845h1.1v1.249a2.709,2.709,0,0,1,2.394-1.409,2.518,2.518,0,0,1,2.381,1.481,2.952,2.952,0,0,1,2.611-1.481,2.669,2.669,0,0,1,2.754,2.989v4.6h-1.1V65.933c0-1.438-.716-2.242-1.921-2.242a2.068,2.068,0,0,0-2.036,2.3v4.283h-1.1V65.905c0-1.394-.733-2.214-1.908-2.214a2.15,2.15,0,0,0-2.065,2.341v4.24h-1.1V62.845Z" transform="translate(-70.86 -59.725)"/><path class="a" d="M187.5,68.147v-.029c0-1.566,1.29-2.4,3.169-2.4a7.822,7.822,0,0,1,2.28.316v-.259c0-1.337-.817-2.027-2.207-2.027a5.158,5.158,0,0,0-2.253.546l-.329-.907a6.126,6.126,0,0,1,2.7-.617,3.238,3.238,0,0,1,2.394.82,2.935,2.935,0,0,1,.76,2.169V70.3h-1.061v-1.12a3.245,3.245,0,0,1-2.68,1.279A2.5,2.5,0,0,1,187.5,68.147Zm5.464-.575v-.718a7.759,7.759,0,0,0-2.18-.316c-1.39,0-2.165.6-2.165,1.537V68.1c0,.935.859,1.48,1.862,1.48A2.243,2.243,0,0,0,192.961,67.572Z" transform="translate(-77.134 -59.753)"/><path class="a" d="M200.078,62.859h1.105V64.8a3.176,3.176,0,0,1,3.026-2.07v1.193h-.087c-1.621,0-2.94,1.163-2.94,3.405v2.96h-1.105Z" transform="translate(-81.265 -59.738)"/><path class="a" d="M208.246,58.365h1.1v7.242l4-4.183h1.377l-3.112,3.19,3.212,4.24h-1.32l-2.653-3.462-1.506,1.524v1.94h-1.1V58.365Z" transform="translate(-83.948 -58.306)"/><path class="a" d="M218.8,66.582v-.029a3.662,3.662,0,0,1,3.558-3.866c2.193,0,3.456,1.753,3.456,3.924a2.9,2.9,0,0,1-.014.358h-5.88a2.592,2.592,0,0,0,2.61,2.516,3.06,3.06,0,0,0,2.337-1.05l.686.618a3.82,3.82,0,0,1-3.054,1.394A3.686,3.686,0,0,1,218.8,66.582Zm5.893-.43a2.446,2.446,0,0,0-2.365-2.531,2.558,2.558,0,0,0-2.409,2.531Z" transform="translate(-87.413 -59.725)"/><path class="a" d="M231.817,67.288V62.8h-1.032v-.977h1.032V59.585h1.105v2.242h2.351V62.8h-2.351v4.341a1.1,1.1,0,0,0,1.247,1.236,2.315,2.315,0,0,0,1.077-.259v.947a2.759,2.759,0,0,1-1.334.317A1.889,1.889,0,0,1,231.817,67.288Z" transform="translate(-91.349 -58.707)"/><path class="a" d="M239.912,62.846h1.106v1.5a3.33,3.33,0,0,1,2.84-1.653A3.621,3.621,0,0,1,247.4,66.54v.028a3.634,3.634,0,0,1-3.541,3.867,3.341,3.341,0,0,1-2.84-1.581v3.723h-1.106Zm6.352,3.736v-.029a2.673,2.673,0,0,0-2.611-2.874,2.766,2.766,0,0,0-2.68,2.861v.028a2.762,2.762,0,0,0,2.68,2.875A2.62,2.62,0,0,0,246.264,66.582Z" transform="translate(-94.346 -59.725)"/><path class="a" d="M253.858,58.365h1.1v10.49h-1.1Z" transform="translate(-98.926 -58.306)"/><path class="a" d="M257.974,68.147v-.029c0-1.566,1.289-2.4,3.168-2.4a7.816,7.816,0,0,1,2.281.316v-.259c0-1.337-.818-2.027-2.209-2.027a5.16,5.16,0,0,0-2.252.546l-.329-.907a6.122,6.122,0,0,1,2.7-.617,3.243,3.243,0,0,1,2.4.82,2.932,2.932,0,0,1,.76,2.169V70.3h-1.06v-1.12a3.248,3.248,0,0,1-2.682,1.279A2.5,2.5,0,0,1,257.974,68.147Zm5.462-.575v-.718a7.747,7.747,0,0,0-2.18-.316c-1.39,0-2.165.6-2.165,1.537V68.1c0,.935.859,1.48,1.863,1.48A2.241,2.241,0,0,0,263.436,67.572Z" transform="translate(-100.277 -59.753)"/><path class="a" d="M269.871,66.6v-.029a3.859,3.859,0,0,1,6.769-2.556l-.733.775a2.989,2.989,0,0,0-2.251-1.122A2.738,2.738,0,0,0,271,66.54v.028a2.775,2.775,0,0,0,2.725,2.889,3.055,3.055,0,0,0,2.265-1.105l.7.661a3.833,3.833,0,0,1-6.826-2.416Z" transform="translate(-104.184 -59.725)"/><path class="a" d="M281.108,66.582v-.029a3.662,3.662,0,0,1,3.556-3.866c2.2,0,3.456,1.753,3.456,3.924a2.888,2.888,0,0,1-.014.358h-5.879a2.593,2.593,0,0,0,2.611,2.516,3.059,3.059,0,0,0,2.337-1.05l.688.618a3.824,3.824,0,0,1-3.055,1.394A3.687,3.687,0,0,1,281.108,66.582Zm5.895-.43a2.445,2.445,0,0,0-2.365-2.531,2.56,2.56,0,0,0-2.41,2.531Z" transform="translate(-107.874 -59.725)"/></g></g></svg>